<?xml version="1.0" encoding="utf-8"?>
<!-- Generator: Adobe Illustrator 27.5.0, SVG Export Plug-In . SVG Version: 6.00 Build 0)  -->
<svg version="1.1" id="Layer_1" xmlns="http://www.w3.org/2000/svg" xmlns:xlink="http://www.w3.org/1999/xlink" x="0px" y="0px"
	 viewBox="0 0 2323.751 2286.845" style="enable-background:new 0 0 2323.751 2286.845;" xml:space="preserve">
<g>
	<g>
		<path style="fill:#723B00;" d="M1307.897,348.376c-0.973-49.048-10.714-98.097-29.226-143.565
			c-30.143-74.038-89.676-144.47-169.655-165.005c-45.731-11.742-99.013-6.222-131.171,31.517c-2.831,3.323-2.123,9.014,3.35,7.249
			c21.892-7.06,41.926,5.53,52.181,24.985c9.573,18.162,9.48,39.699,3.617,59.011c-9.673,31.863-32.88,57.349-55.835,80.531
			c-24.093,24.332-50.099,47.62-69.095,76.387c-19.861,30.074-29.819,65.858-28.554,101.852
			c1.056,30.021,10.423,63.271,29.18,88.155c2.882,7.734,6.836,14.752,12.822,21c8.617,8.994,19.052,15.638,30.303,20.866
			c23.994,11.149,50.574,15.124,76.771,16.683c68.237,4.06,137.173-6.145,201.427-29.442c15.683-5.687,32.276-12.093,43.809-24.699
			c8.512-9.304,16.426-24.476,11.964-37.195C1304.185,435.867,1308.751,391.4,1307.897,348.376z"/>
		<path style="fill:#E88D12;" d="M1257.248,510.364c-11.813,7.357-25.974,11.539-39.105,15.877
			c-28.114,9.287-57.049,15.891-86.382,19.898c-51.406,7.023-109.013,9.542-158.84-7.582c-14.953-5.139-29.65-13.054-42.122-23.356
			c-7.502-13.317-14.525-26.875-19.302-41.471c-5.953-18.195-8.956-37.932-9.07-57.065c-0.228-38.229,12.443-73.169,35.895-103.124
			c41.326-52.785,113.135-94.381,116.761-168.383c1.019-20.795-3.732-44.063-19.006-59.271
			c-10.453-10.408-26.847-17.247-42.332-17.575c29.007-21.01,70.473-21.81,104.033-13.753c37.167,8.924,70.353,30.087,97.335,56.754
			c61.026,60.311,91.152,146.327,96.361,230.739c2.705,43.843-3.254,86.275-12.303,128.694c-3.251,2.025-5.935,6.114-5.985,9.519
			C1272.988,493.615,1268.803,503.168,1257.248,510.364z"/>
		<path style="fill:#723B00;" d="M2020.465,392.388c-43.034-32.048-96.141-45.659-149.262-46.811
			c-56.377-1.225-113.743,8.86-167.167,26.66c-50.473,16.818-98.911,43.24-136.493,81.366
			c-26.542,26.927-47.253,59.162-58.413,94.652c-9.96,16.784-12.526,37.181-9.484,56.825c4.508,29.112,22.475,54.206,41.208,76.098
			c21.546,25.177,44.443,49.303,67.145,73.433c21.174,22.506,42.322,45.227,65.834,65.343c12.207,10.444,25.123,20.157,38.884,28.47
			c13.232,7.993,29.841,18.239,45.724,18.169c1.616-0.007,4.05-1.232,5.978-2.911c25.238-1.17,50.782-13.174,70.215-27.825
			c32.005-24.13,52.985-58.926,65.061-96.765c12.293-38.517,14.754-78.124,19.844-117.93c4.768-37.291,15.368-75.2,49.536-95.69
			c32.245-19.335,74.596-19.427,108.498-4.527c6.965,3.061,16.043-4.991,15.042-12.221
			C2086.112,461.719,2058.143,420.448,2020.465,392.388z"/>
		<path style="fill:#E88D12;" d="M1915.525,565.983c-15.879,37.331-14.975,79.003-20.798,118.494
			c-5.956,40.401-17.475,82.151-43.626,114.451c-12.884,15.912-29.728,29.203-48.507,37.437
			c-17.389,7.623-35.823,10.15-54.551,10.191c-5.745-2.399-11.584-4.652-16.98-7.552c-12.237-6.574-23.759-14.378-34.67-22.961
			c-21.161-16.649-40.112-35.872-58.665-55.324c-21.843-22.902-43.391-46.086-64.667-69.515
			c-19.389-21.35-39.845-42.969-51.907-69.527c-5.651-12.443-9.356-26.058-10.049-39.637c9.558-39.272,30.279-76.285,57.419-105.849
			c33.472-36.459,76.098-62.046,122.159-79.458c48.465-18.321,100.92-28.874,152.687-30.902
			c51.04-1.999,103.71,6.667,147.834,33.515c36.575,22.255,66.695,56.676,78.725,97.869
			C2009.467,481.156,1941.269,505.457,1915.525,565.983z"/>
		<path style="fill:#723B00;" d="M2279.783,1144.485c-15.603-44.805-49.564-81.422-86.444-110.031
			c-76.785-59.563-173.032-96.2-270.449-99.213c-44.413-1.374-89.748,4.973-126.827,29.375c-2.639,0.49-5.329,2.118-6.803,4.785
			c-3.363,2.492-6.677,5.087-9.879,7.915c-3.633,3.208-0.484,8.69,3.96,5.775c0.545-0.359,1.134-0.633,1.683-0.984
			c-18.349,57.518-26.635,117.462-24.763,177.911c0.986,31.834,4.811,63.581,11.494,94.723
			c5.791,26.983,12.893,56.281,35.094,74.741c42.352,35.214,109.978,27.786,158.844,13.005
			c57.451-17.379,105.913-51.421,153.376-86.951c23.709-17.749,52.776-38.08,84.055-33.576c23.95,3.448,51.709,22.189,48.855,49.327
			c-1.033,9.822,10.783,7.53,14.62,1.913C2292.281,1235.608,2294.497,1186.735,2279.783,1144.485z"/>
		<path style="fill:#E88D12;" d="M2265.085,1245.158c-4.714-11.938-13.893-21.926-25.549-29.128
			c-20.581-12.714-44.65-13.916-67.398-7.033c-26.992,8.169-49.75,26.027-71.791,42.932c-23.443,17.981-47.718,34.777-73.879,48.595
			c-50.375,26.606-112.583,45.237-169.539,31.398c-28.383-6.897-48.471-24.266-58.499-51.753
			c-10.537-28.879-15.067-60.961-18.148-91.419c-7.338-72.52,0.722-146.59,22.494-216.122c0.024-0.077,0.027-0.14,0.05-0.217
			c32.214-15.201,69.107-20.323,104.398-19.627c44.849,0.883,90.136,9.122,132.694,23.172
			c42.844,14.145,83.79,34.432,120.814,60.239c35.77,24.933,70.53,55.51,91.887,94.07
			C2271.873,1165.024,2279.261,1208.033,2265.085,1245.158z"/>
		<path style="fill:#723B00;" d="M701.123,656.795c-0.965-1.727-2.478-2.372-4.109-2.385c-3.461-9.533-8.143-18.575-14.557-26.887
			c-12.933-16.76-29.209-30.425-46.988-41.779c-41.377-26.431-90.067-41.306-137.845-51.043
			c-99.908-20.362-207.949-9.719-293.055,49.872c-41.855,29.306-76.122,68.701-96.614,115.694
			c-2.655,6.089,2.868,12.324,9.201,9.303c31.726-15.136,67.049-32.146,103.185-25.729c30.933,5.494,56.156,28.535,73.022,53.977
			c19.414,29.282,31.184,62.773,46.488,94.21c14.845,30.495,32.138,59.895,53.052,86.651c35.75,45.736,93.275,91.648,155.377,79.786
			c61.03-11.657,93.062-71.633,119.471-121.755c18.18-34.505,34.489-70.094,42.441-108.491
			C717.623,732.353,719.482,689.657,701.123,656.795z"/>
		<path style="fill:#E88D12;" d="M693.851,763.01c-6.268,33.642-20.078,65.592-35.248,96.085
			c-23.402,47.039-53.113,113.861-111.719,122.835c-62.48,9.567-116.417-42.95-149.634-89.252
			c-19.332-26.948-35.111-56.396-48.917-86.497c-13.86-30.219-26.126-61.493-46.136-88.353
			c-19.072-25.6-45.933-46.758-78.215-51.567c-31.352-4.669-62.114,5.852-90.742,18.537
			c37.582-68.272,108.426-114.735,183.8-131.782c51.036-11.543,103.941-11.17,155.392-2.547
			c46.305,7.76,93.073,21.139,134.793,43.032c20.134,10.567,39.515,23.569,55.505,39.833c10.066,10.239,19.792,21.784,27.143,34.449
			C696.994,699.546,699.891,730.588,693.851,763.01z"/>
		<path style="fill:#723B00;" d="M727.777,1466.155c-19.6-36.767-47.457-70.511-78.783-97.894
			c-23.089-20.185-48.901-36.542-77.271-47.33c1.625-0.258,3.234-0.642,4.864-0.858c3.599-0.473,5.817-6.924,0.997-6.672
			c-8.073,0.421-16.187,0.855-24.274,1.516c-2.895-0.818-5.766-1.695-8.71-2.396c-3.661-0.872-7.285,1.355-9.59,4.481
			c-4.815,0.77-9.598,1.722-14.328,2.949c-17.823,4.624-35.234,10.678-52.039,18.208c-34.469,15.444-66.403,37.47-93.787,63.424
			c-27.552,26.114-50.835,56.695-68.44,90.327c-20.752,39.645-30.15,82.466-39.622,125.863
			c-5.384,24.662-10.514,50.605-21.935,73.332c-10.549,20.99-32.595,40.236-57.643,31.804c-7.765-2.615-17.262,7.174-11.904,14.425
			c42.612,57.661,109.344,88.682,178.283,101.866c75.094,14.361,155.814,8.701,226.021-22.781
			c62.706-28.121,115.07-76.791,146.213-138.191C759.409,1612.021,763.11,1532.434,727.777,1466.155z"/>
		<path style="fill:#E88D12;" d="M718.255,1656.884c-23.647,58.23-69.719,106.389-125.195,135.38
			c-63.997,33.443-138.897,42.382-209.911,32.878c-65.435-8.755-135.362-33.391-180.341-83.635
			c31.379-3.961,55.175-35.978,65.782-65.277c16.481-45.524,21.008-94.406,37.001-140.082
			c25.587-73.072,79.85-134.148,146.911-172.122c18.558-10.509,37.996-19.483,58.169-26.425c8.443-2.904,17.004-5.703,25.626-8.306
			c0.444,0.197,0.893,0.389,1.428,0.523c66.377,16.714,121.397,67.904,158.789,123.47c20.818,30.935,35.001,65.198,37.978,102.601
			C737.228,1590.278,731.208,1624.99,718.255,1656.884z"/>
		<path style="fill:#723B00;" d="M1326.077,1876.39c-3.345-37.878-12.152-78.082-31.756-111.096
			c-19.334-32.558-49.356-51.988-85.312-62.259c-40.048-11.44-82.783-15.025-124.295-14.474
			c-42.056,0.557-86.677,4.63-126.216,19.977c-26.276,10.2-50.82,26.761-63.7,51.407c-31.922,44.644-36.483,108.563-21.563,159.987
			c11.781,40.608,34.206,77.051,60.318,109.972c13.448,16.953,27.972,33.026,42.978,48.606c14.604,15.162,30.105,29.629,43,46.334
			c12.736,16.498,22.97,36.232,22.449,57.574c-0.422,17.312-7.383,36.341-24.282,43.606c-4.848,2.084-13.411,13.836-4.654,16.909
			c69.817,24.502,146.856-0.108,200.388-48.293c55.41-49.874,87.343-122.073,103.511-193.66
			C1326.137,1960.268,1329.753,1918.02,1326.077,1876.39z"/>
		<path style="fill:#E88D12;" d="M1303.647,1973.305c-10.109,66.798-34.948,136.202-79.685,187.865
			c-45.202,52.201-116.706,85.646-185.404,68.975c18.338-17.914,25.373-46.209,19.927-71.714
			c-8.756-41.018-43.777-69.777-71.311-98.725c-56.039-58.916-109.574-132.172-105.467-217.603
			c0.933-19.417,4.846-38.146,11.594-55.669c4.299-0.134,9.546-2.945,10.816-7.141c8.174-27.016,31.17-43.045,56.489-52.818
			c31.836-12.289,67.183-16.143,101.029-17.879c38.998-1.999,78.477,0.83,116.766,8.544c33.644,6.78,66.506,19.32,88.513,46.871
			c21.726,27.199,31.729,63.659,37.079,97.443C1309.863,1898.51,1309.254,1936.26,1303.647,1973.305z"/>
		<path style="fill:#723B00;" d="M2061.786,1689.514c-46.76,34.546-112.822,15.789-152.622-20.268
			c-21.189-19.197-37.331-43.101-49.75-68.722c-11.712-24.164-18.91-49.847-28.226-74.935
			c-8.135-21.906-18.652-44.785-36.836-60.225c-22.496-19.103-51.56-21.563-79.77-17.303
			c-57.844,8.735-114.03,33.386-161.036,67.943c-41.823,30.747-103.312,86.083-88.378,144.366
			c4.06,98.768,102.927,174.211,190.442,203.849c101.404,34.341,212.848,19.964,301.953-39.467
			c47.735-31.838,89.532-75.8,115.458-127.249C2076.786,1690.034,2067.635,1685.194,2061.786,1689.514z"/>
		<path style="fill:#E88D12;" d="M1965.27,1800.771c-38.432,28.604-82.891,49.3-129.919,58.841
			c-99.534,20.194-207.382-9.137-283.513-76.243c-32.091-28.287-62.571-67.457-73.46-110.532c3.936-2.555,7.141-7.611,5.718-11.875
			c-18.401-55.089,41.607-105.65,80.931-133.402c45.502-32.112,101.559-56.853,157.502-61.861
			c27.584-2.469,52.019,5.955,69.042,28.2c14.588,19.064,22.13,43.087,29.68,65.554c16.854,50.151,40.204,100.643,83.488,133.497
			c39.941,30.317,93.273,40.707,139.393,22.767C2022.714,1748.268,1996.953,1777.191,1965.27,1800.771z"/>
		<path style="fill:#723B00;" d="M1660.041,249.605c-18.395-65.275-64.375-127.768-131.235-149.044
			c-8.7-2.769-21.024,11.036-11.078,16.643c15.818,8.918,17.968,30.711,10.297,45.721c-8.776,17.174-26.656,28.917-42.598,38.748
			c-34.516,21.286-73.209,34.44-110.667,49.446c-37.093,14.862-73.454,31.898-104.076,58.027
			c-29.253,24.962-51.543,57.651-66.813,92.788c-13.871,31.921-22.271,68.17-22.994,103.509c-0.622-0.341-1.253-0.668-1.875-1.009
			c-7.251-3.978-17.663,9.753-9.489,14.253c3.881,2.139,7.799,4.203,11.697,6.307c0.015,0.218,0.007,0.44,0.021,0.659
			c0.123,1.821,1.708,1.762,3.046,0.995c61.942,33.267,125.908,62.427,191.371,88.123c34.784,13.653,70.29,27.848,106.636,36.788
			c32.978,8.113,68.432,6.549,96.627-14.097c53.385-39.089,76.155-111.497,86-173.954
			C1675.901,393.792,1679.348,318.119,1660.041,249.605z"/>
		<path style="fill:#E88D12;" d="M1652.083,436.396c-6.643,60.787-21.521,128.112-64.774,174.127
			c-10.477,11.146-22.856,20.563-37.697,24.953c-16.522,4.889-34.184,3.45-50.858,0.181c-34.885-6.839-68.923-19.772-102.259-31.891
			c-71.74-26.081-141.272-58.117-208.395-94.438c5.087-35.671,13.335-69.896,28.421-103.136
			c16.45-36.245,41.231-69.386,73.366-93.173c67.535-49.988,156.453-59.401,223.132-110.972
			c17.321-13.396,33.996-31.046,37.469-53.566c0.941-6.095,0.71-12.263-0.464-18.174c14.21,7.635,27.144,17.364,39.002,29.437
			c20.236,20.604,35.762,45.462,46.442,72.244C1661.095,296.246,1659.474,368.755,1652.083,436.396z"/>
		<path style="fill:#723B00;" d="M971.705,504.831c7.461-28.28,11.456-57.312,7.659-86.612
			c-5.015-38.713-24.833-73.612-52.538-100.72c-63.318-61.956-153.098-78.184-236.713-94.103
			c-25.915-4.936-52.194-9.544-77.551-16.929c-22.119-6.443-43.184-16.121-59.21-33.075c-4.504-4.763-12.634,0.789-14.303,5.615
			c-23.593,68.202-32.671,138.517-27.054,210.52c5.676,72.749,24.23,144.388,49.727,212.597
			c21.96,58.749,53.807,133.034,124.639,142.695c34.37,4.687,69.456-8.56,100.001-23.066c27.751-13.179,53.666-29.652,77.493-49.031
			c51.391-41.794,97.895-99.773,114.73-164.809C979.905,502.816,975.299,502.94,971.705,504.831z"/>
		<path style="fill:#E88D12;" d="M871.016,648.085c-21.106,19.449-44.543,36.287-69.643,50.203
			c-27.141,15.045-58.37,29.33-89.667,31.463c-72.411,4.932-108.542-68.669-130.523-125.574
			c-24.512-63.455-43.359-129.43-51.461-197.098c-8.394-70.105-5.746-144.473,18.805-211.375
			c25.995,24.372,65.192,32.03,98.902,39.097c44.831,9.397,90.288,16.105,134.478,28.378
			c72.574,20.155,148.73,62.321,175.247,137.345c15.274,43.216,8.601,90.058-2.425,133.941
			C932.54,576.447,906.564,615.324,871.016,648.085z"/>
		<path style="fill:#723B00;" d="M546.664,958.89c-2.058-2.713-5.638-1.717-8.319,0.613c-13.705-16.179-32.066-28.296-52.789-36
			c-36.775-13.671-76.59-11.347-113.422,0.951c-89.364,29.836-146.481,109.25-208.797,174.638
			c-16.64,17.461-34.767,36.979-58.572,44.188c-19.594,5.934-42.635,1.822-55.53-14.892c-4.265-5.528-14.127,2.193-14.305,7.432
			c-1.318,38.786,15.305,75.608,36.56,107.104c19.841,29.403,43.596,55.728,70.795,78.495
			c54.035,45.231,118.668,76.584,186.742,94.138c40.879,10.542,84.481,16.521,126.261,7.605
			c31.896-6.807,60.868-22.067,85.605-43.174c50.246-42.872,80.436-108.471,84.644-173.954
			C631.11,1119.305,598.823,1027.61,546.664,958.89z"/>
		<path style="fill:#E88D12;" d="M547.091,1352.514c-20.041,21.537-44.557,38.561-72.505,48.066
			c-37.103,12.617-77.363,10.087-115.25,2.615c-65.765-12.974-129.976-40.177-184.107-79.866
			c-29.442-21.587-56.34-47.036-79.038-75.658c-21.356-26.931-41.007-58.154-45.044-92.463c24.755,15.52,60.051,6.807,83.523-9.451
			c18.149-12.568,33.402-29.025,48.375-45.094c16.15-17.334,31.759-35.158,47.8-52.591
			c55.969-60.828,131.921-129.044,221.705-113.655c40.424,6.93,79.809,30.478,99.5,67.374c0.393,0.736,0.917,1.097,1.476,1.31
			c27.586,54.921,50.622,111.361,53.675,174.138C610.289,1240.742,590.916,1305.416,547.091,1352.514z"/>
		<path style="fill:#723B00;" d="M981.379,1643.905c-22.268-24.975-50.576-45.213-82.091-56.711
			c-39.724-14.493-83.243-15.487-125.015-13.482c-4.059,0.195-7.958,5.352-8.497,9.558c-18,6.412-35.145,15.477-50.115,25.54
			c-33.831,22.739-62.572,53.685-81.828,89.673c-22.515,42.082-29.29,87.69-27.244,135.028
			c2.225,51.462,13.432,103.141,7.602,154.715c-5.129,45.372-22.549,93.075-64.158,116.741c-3.826,2.177-6.85,11.235-0.22,11.78
			c19.797,1.627,39.376,4.173,59.262,4.75c19.42,0.563,38.881,0.346,58.277-0.787c38.71-2.258,77.091-8.435,114.316-19.367
			c64.279-18.876,125.235-52.807,171.986-101.178c47.261-48.901,79.224-113.494,84.575-181.701
			C1043.205,1755.013,1023.97,1691.673,981.379,1643.905z"/>
		<path style="fill:#E88D12;" d="M954.868,1975.382c-40.854,48.011-95.769,82.29-154.921,103.143
			c-37.678,13.282-77.227,21.164-116.954,24.987c-21.438,2.063-42.988,2.958-64.523,2.773c-15.853-0.136-31.927-0.217-47.837-1.259
			c26.335-20.111,43.629-50.253,52.449-82.198c12.224-44.278,9.27-89.613,4.863-134.81c-4.983-51.109-11.004-103.906,6.112-153.492
			c13.116-38.001,36.903-71.778,67.264-97.996c17.1-14.765,36.771-27.329,57.329-36.71c9.065-4.137,18.377-7.471,27.787-10.496
			c31.036,1.127,62.314,1.862,92.174,11.23c26.723,8.384,51.11,23.056,71.588,42.09c42.982,39.955,68.04,96.328,69.682,154.879
			C1021.689,1861.979,996.421,1926.553,954.868,1975.382z"/>
		<path style="fill:#723B00;" d="M1706.317,1723.064c-14.753-58.204-51.29-110.023-104.479-139.073
			c-57.135-31.204-124.306-26.101-183.614-3.991c-35.519,13.243-68.94,31.913-100.308,53.075
			c-18.42,12.427-37.664,26.534-51.541,44.351c-1.076-0.16-2.388,0.309-3.016,1.5c-1.685,3.19-3.177,6.467-4.679,9.739
			c-3.344,5.667-6.138,11.677-8.191,18.104c-0.403,1.264-0.348,2.26-0.118,3.127c-20.93,63.846-10.884,137.946,22.868,195.295
			c20.833,35.397,49.878,64.123,85.417,84.679c43.433,25.12,92.257,38.172,138.029,58.09
			c46.506,20.237,89.978,48.454,113.944,94.603c3.982,7.668,15.156,0.325,15.757-6.091c6.898-73.56,29.821-143.238,56.024-211.818
			c12.68-33.186,24.496-66.831,29.002-102.243C1715.605,1789.453,1714.498,1755.34,1706.317,1723.064z"/>
		<path style="fill:#E88D12;" d="M1694.715,1820.155c-3.338,33.861-13.538,66.193-25.43,97.918
			c-13.135,35.046-26.457,69.793-36.336,105.944c-7.891,28.88-13.699,58.014-18.538,87.424
			c-18.886-28.349-47.897-49.55-77.65-65.515c-42.025-22.551-88.496-34.859-132.138-53.704
			c-40.259-17.385-76.055-40.972-102.802-76.166c-23.469-30.88-39.39-68.447-46.125-106.589
			c-5.861-33.179-4.845-66.104,2.708-98.218c0.586-0.482,1.121-1.057,1.535-1.779c14.901-25.961,37.178-44.853,61.851-61.166
			c26.196-17.319,53.661-33.084,82.624-45.309c56.506-23.851,120.489-33.167,177.543-5.776
			c51.554,24.75,88.889,73.017,104.52,127.533C1695.317,1755.578,1697.856,1788.282,1694.715,1820.155z"/>
		<path style="fill:#723B00;" d="M2176.646,1518.292c-12.205-29.694-15.397-62.358-21.472-93.639
			c-5.32-27.388-13.465-53.954-26.913-78.504c-25.03-45.693-64.636-83.019-110.038-108.126
			c-51.337-28.391-114.474-43.172-172.392-29.057c-51.661,12.589-93.982,46.11-126.647,87.093
			c-18.601,23.336-33.968,49.123-47.037,75.912c-10.324,21.161-20.536,44.432-23.376,68.225c-2.624-5.743-5.087-11.551-7.236-17.474
			c-0.767-2.115-4.165,0.231-3.831,1.965c2.406,12.464,6.068,24.42,10.632,35.9c0.286,3.499,0.722,6.999,1.436,10.495
			c0.664,3.26,2.713,4.309,4.996,3.999c26.648,54.069,76.691,94.271,136.764,109.602c40.774,10.403,84.432,8.563,124.357-4.547
			c42.588-13.983,79.69-40.057,121.226-56.471c39.752-15.707,89.695-21.723,126.046,5.507
			C2169.51,1533.925,2179.638,1525.574,2176.646,1518.292z"/>
		<path style="fill:#E88D12;" d="M2070.847,1496.515c-41.542,8.391-77.937,30.842-115.486,49.346
			c-39.609,19.519-80.507,31.343-125.032,27.424c-42.022-3.699-81.978-19.665-114.694-46.295
			c-20.785-16.919-38.728-37.528-52.858-60.44c0.006-0.168,0.087-0.334,0.078-0.503c-1.671-30.997,8.589-59.844,21.789-87.389
			c10.682-22.292,23.203-43.739,37.763-63.729c28.58-39.235,66.609-73.14,113.912-87.143
			c55.336-16.381,116.442-2.167,166.367,24.103c43.205,22.736,81.116,57.019,106.154,99.108
			c15.106,25.394,24.887,52.357,31.002,81.226c5.073,23.947,8.895,47.906,15.037,71.439
			C2129.141,1491.529,2099.106,1490.806,2070.847,1496.515z"/>
		<path style="fill:#723B00;" d="M2237.111,648.674c-1.905-9.629-12.58-4.938-16.681,0.128
			c-25.018,30.914-67.051,41.726-105.064,43.69c-46.8,2.419-92.654-9.904-138.471-17.431c-46.578-7.653-93.655-9.489-138.697,6.601
			c-36.884,13.176-70.104,35.888-97.282,63.928c-17.671,18.232-32.616,38.85-45.115,60.887c-1.753,0.372-3.554,1.336-4.928,3.156
			c-11.554,15.311-17.645,32.544-19.741,50.445c-0.052,0.141-0.112,0.279-0.163,0.42c-0.335,0.933-0.326,1.634-0.19,2.234
			c-3.877,41.082,13.237,85.404,35.875,118.287c18.344,26.644,41.947,49.74,71.62,63.358c29.16,13.385,61.547,17.016,93.319,15.633
			c33.151-1.444,65.796-8.646,97.702-17.397c34.886-9.569,69.269-21.024,101.128-38.385
			c54.568-29.736,100.906-75.653,131.094-129.976C2239.438,806.018,2252.275,725.279,2237.111,648.674z"/>
		<path style="fill:#E88D12;" d="M2087.487,975.325c-26.425,17.54-55.268,30.156-85.371,39.951
			c-30.254,9.844-61.281,18.198-92.78,22.909c-29.647,4.432-60.104,5.518-89.517-1.127c-29.563-6.68-55.628-22.193-76.33-44.218
			c-37.537-39.934-70.201-105.626-51.18-160.749c33.104-60.624,86.734-113.703,152.749-134.442
			c91.484-28.743,182.774,21.338,275.205,13.638c37.694-3.139,73.371-15.484,100.772-40.604
			C2238.632,788.51,2187.678,908.819,2087.487,975.325z"/>
	</g>
	<path style="fill:#E88D12;" d="M978.713,307.561c20.435-4.136,39.769-13.561,55.622-27.114
		c16.061-13.728,28.686-31.474,35.864-51.383c6.012-16.674,7.787-33.514,5.74-51.054c-2.028-17.384-6.926-35.029-15.395-50.403
		c-3.278-5.953-7.294-11.627-12.046-16.441c3.634,7.414,6.519,15.189,8.396,23.33c7.603,32.976-2.87,65.814-19.307,94.379
		C1021.214,257.325,999.735,282.44,978.713,307.561z"/>
	<path style="fill:#E88D12;" d="M637.307,551.954c-13.044-21.042-25.224-42.618-36.151-64.839
		c-11.88-24.16-22.373-49.037-30.996-74.547c-8.026-23.747-13.559-48-19.302-72.359c-6.688-28.37-14.388-59.896-13.277-90.181
		c-5.175,15.172-8.332,31.044-9.643,47.056c-4.253,51.942,8.346,105.046,30.419,151.907
		C576.713,487.961,602.708,525.548,637.307,551.954z"/>
	<path style="fill:#E88D12;" d="M655.146,433.151c1.364-6.399,0.594-13.175-0.85-19.484c-3.968-17.346-12.545-33.851-22.894-48.222
		c-7.467-10.372-17.884-22.942-30.786-26.973c-0.106,1.264,0.01,2.525,0.561,3.814c0.855,1.993-0.132,3.839-1.569,4.771
		c0.46,2.615,0.978,5.219,1.579,7.787c4.206,17.971,11.181,35.653,21.072,51.267C629.575,417.663,640.601,431.357,655.146,433.151z"
		/>
	<path style="fill:#E88D12;" d="M1058.114,306.16c-1.465-3.469-4.223-4.642-7.248-4.595c-7.67,5.877-14.756,12.602-20.984,19.81
		c-7.971,9.226-17.639,22.435-16.846,35.512c7.741-1.056,15.324-5.3,21.667-9.409
		C1047.396,339.256,1065.348,323.291,1058.114,306.16z"/>
	<path style="fill:#E88D12;" d="M1486.964,281.94c23.78-21.769,44.953-52.718,49.331-85.537
		c-4.944,7.201-10.687,13.913-17.228,19.981c-17.391,16.132-38.38,27.907-59.632,38.14c-22.896,11.024-46.542,20.381-69.719,30.78
		c-39.703,17.814-82.834,40.222-103.315,80.322c21.637-11.463,44.918-19.358,68.409-26.224
		C1400.895,325.931,1450.505,315.318,1486.964,281.94z"/>
	<path style="fill:#E88D12;" d="M2172.951,711.59c-18.934,5.897-38.912,7.816-58.808,7.447
		c-49.556-0.918-97.941-13.757-147.299-16.986c-22.917-1.5-46.311-0.982-68.553,5.258c-19.772,5.549-37.276,15.87-51.847,29.981
		c15.603-7.372,32.522-11.672,50.09-13.305c51.568-4.79,102.635,9.85,153.545,15.406c24.184,2.639,49.143,3.651,73.001-1.95
		C2141.925,733.017,2158.742,724.148,2172.951,711.59z"/>
	<path style="fill:#E88D12;" d="M1784.713,1836.569c34.366,14.332,74.007,14.234,109.385,3.703
		c32.247-9.598,62.098-28.712,81.383-56.453c-14.311,5.355-28.519,10.993-42.787,16.46c-35.184,13.484-71.251,26.186-108.787,31.055
		c-16.69,2.165-33.912,2.493-50.466-0.213C1777.11,1833.11,1780.857,1834.961,1784.713,1836.569z"/>
	<path style="fill:#E88D12;" d="M651.117,1809.14c-0.292-3.473-0.706-7.059-1.13-10.701c-2.332,7.049-4.069,14.332-5.251,21.732
		c-5.957,37.318,0.106,75.129,0.085,112.611c-0.024,44.989-13.887,87.13-27.963,129.271c15.928-5.845,26.043-21.351,32.446-36.714
		c15.362-36.86,17.145-79.039,13.465-118.298C659.701,1874.31,653.879,1841.906,651.117,1809.14z"/>
	<path style="fill:#E88D12;" d="M311.852,1596.656c-18.804,50.431-34.56,104.319-72.402,143.872
		c18.605-5.161,36.003-14.057,51.051-26.323c34.927-28.469,55.977-71.099,64.107-114.873c4.767-25.671,5.626-51.894,7.685-77.87
		c0.491-6.198,0.925-12.569,1.644-18.891c-10.935,12.289-19.994,26.337-27.974,40.605
		C326.361,1560.344,318.714,1578.255,311.852,1596.656z"/>
	<path style="fill:#E88D12;" d="M200.163,1277.3c-19.309-17.671-39.96-34.101-63.152-46.415
		c-13.023-6.915-26.732-12.225-40.87-15.915c13.516,15.972,26.093,32.704,39.358,48.898c15.138,18.48,31.61,35.942,50.855,50.216
		c20.352,15.096,42.902,27.976,65.83,38.714c14.584,6.83,29.859,12.78,45.52,17.298
		C262.904,1341.792,233.223,1307.556,200.163,1277.3z"/>
	<path style="fill:#E88D12;" d="M344.317,684.426c-11.097-13.504-26.35-23.339-42.746-29.164
		c-15.655-5.56-32.891-7.543-49.216-5.192l0.016,0.006c66.626,20.646,104.844,84.295,128.511,146.588
		c-0.47-18.581-3.533-37.125-8.632-54.957C366.44,721.392,357.837,700.884,344.317,684.426z"/>
	<path style="fill:#E88D12;" d="M1109.224,2096.162c-7.626-22.433-27.141-41.246-45.492-55.352
		c-8.732-6.713-18.022-12.557-27.56-18.043c-8.516-4.9-17.853-8.251-27.039-11.644c-7.595-2.806-15.691-5.55-23.487-8.905
		c0.667,1.715,1.324,3.437,2.019,5.14c0.681,1.664,1.398,3.317,2.107,4.974c8.586,9.807,17.058,19.711,25.074,29.989
		c19.24,24.667,36.639,51.475,45.942,81.591c8.701,28.168,8.791,57.571,1.568,85.873c17.523-13.06,32.612-29.75,42.096-49.509
		C1114.092,2140.192,1116.443,2117.399,1109.224,2096.162z"/>
	<path style="fill:#E88D12;" d="M1497.094,1947.458c-16.036-11.176-33.992-19.354-51.607-27.674
		c-16.779-7.927-35.271-16.291-51.485-27.254c2.304,9.699,5.977,19.096,11.193,27.96c20.932,35.58,58.011,59.317,91.972,81.024
		c17.814,11.386,35.881,22.41,53.201,34.548c9.135,6.403,18.084,13.212,26.492,20.606c-9.983-18.909-20.055-37.782-31.775-55.682
		C1532.072,1981.115,1516.766,1961.168,1497.094,1947.458z"/>
	<path style="fill:#E88D12;" d="M1906.924,1508.708c-27.635,9.846-56.521,13.184-85.219,9.365
		c8.991,4.918,18.795,8.448,28.839,10.812c40.474,9.529,85.598,2.474,122.949-15.047c32.923-15.446,64.305-42.317,71.092-79.406
		c-15.49,8.094-30.53,17.008-45.476,26.063C1969.467,1478.454,1939.735,1497.019,1906.924,1508.708z"/>
	<path style="fill:#E88D12;" d="M2189.578,1115.157c-11.227-8.463-23.663-15.284-36.373-21.232
		c-14.77-6.914-29.988-13.095-46.005-16.407c-20.912-4.325-41.824-3.133-62.549,0.184c60.504,10.053,115.127,40.862,170.437,66.293
		C2209.359,1132.412,2199.841,1122.89,2189.578,1115.157z"/>
	<path style="fill:#E88D12;" d="M1926.307,374.486c-25.955-6.758-53.185-7.531-79.772-4.831
		c-21.218,2.154-42.33,5.118-63.068,10.188c-20.26,4.95-40.319,11.741-58.709,21.705c8.196-2.075,16.439-3.977,24.77-5.52
		c46.163-8.549,92.95-9.127,139.708-7.079c31.396,1.374,65.661,2.907,95.281,15.212
		C1967.705,390.078,1947.87,380.101,1926.307,374.486z"/>
	<path style="opacity:0.7;fill:#E88D12;" d="M2279.783,1144.484c-15.603-44.804-49.564-81.422-86.444-110.031
		c-26.755-20.753-55.911-38.648-86.618-53.383c38.733-28.3,71.574-65.027,94.797-106.818
		c37.918-68.234,50.756-148.973,35.593-225.578c-1.473-7.439-8.156-6.31-13.021-3.085c-0.224,9.694-1.322,19.381-2.936,28.699
		c-5.293,30.564-16.222,60.054-28.864,88.277c-11.78,26.298-24.858,52.015-42.847,74.664c-20.677,26.033-46.418,48.16-75.146,64.879
		c-28.586,16.634-60.304,27.85-93.178,31.841c-30.084,3.654-61.156,1.652-88.923-11.171c-22.906-10.577-47.304-29.049-53.4-54.903
		c-6.436-27.299,11.969-52.285,32.506-68.167c22.833-17.656,51.084-27.905,79.11-33.745c15.033-3.131,30.432-5.068,45.854-5.548
		c-4.723-0.889-9.458-1.707-14.21-2.407c-32.803-4.83-66.686-5.6-99.559-0.982c-30.53,4.289-62.081,13.353-86.602,32.779
		c-2.455,1.947-7.202,0.259-5.896-3.431c7.398-20.908,18.315-40.345,32.885-57.107c28.371-32.636,67.142-51.63,108.55-59.353
		c-5.887-0.324-11.771-0.532-17.643-0.525c2.028-16.006,3.682-32.099,5.744-48.229c4.768-37.291,15.368-75.2,49.536-95.689
		c32.244-19.336,74.596-19.427,108.498-4.527c1.879,0.824,3.901,0.796,5.847,0.238c-14.3-14.166-29.537-27.345-46.755-37.691
		c-25.217-15.149-53.994-21.838-83.153-16.309c-28.73,5.448-57.315,19.053-78.01,39.932
		c-37.759,38.095-45.513,94.938-52.009,145.728c-0.249,1.945-1.439,3.47-3.528,3.528c-29.228,0.824-59.129-8.434-81.389-27.714
		c-20.235-17.527-30.647-42.05-30.857-68.641c-0.207-26.258,8.398-51.767,22.89-73.518c25.275-37.937,65.493-65.393,108.155-81.507
		c-15.032,0.502-29.916,3.418-44.238,8.315c-38.512,13.165-72.368,39.133-98.428,70.046c-21.776,25.833-39.444,57.072-46.187,90.523
		c-0.202,1.161-0.428,2.317-0.618,3.479c-0.73,4.111-1.388,8.237-1.77,12.405c-0.527,4.425-7.474,4.563-7.056,0
		c0.586-6.377,1.612-12.676,2.952-18.902c1.834-9.932,4.047-19.793,6.52-29.59c7.618-30.182,17.032-59.925,23.136-90.478
		c4.493-22.484,7.159-45.786,4.577-68.601c-1.463,0.603-2.942,1.16-4.4,1.776c0.343-7.574,0.481-15.156,0.518-22.737
		c-0.081-0.481-0.095-0.929-0.001-1.335c0.088-37.469-3.739-74.837-13.728-110.288c-17.611-62.492-60.557-122.332-122.85-146
		c2.613,3.594,5.117,7.226,7.388,10.866c15.287,24.494,25.834,52.306,32.472,80.34c5.875,24.811,6.95,49.982,5.418,75.386
		c-1.894,31.403-7.74,63.039-19.512,92.301c-11.24,27.938-28.276,54.281-53.567,71.388c-10.942,7.403-23.633,13.289-36.623,15.955
		c-9.975,2.047-20.325,2.482-30.48,2.558c-27.437,0.206-55.376-2.762-82.01-9.418c-12.085-3.02-24.153-6.913-35.2-12.747
		c-8.568-4.526-17.303-10.681-21.982-19.425c-12.085-22.582,9.74-49.501,23.924-65.359c7.509-8.396,15.643-16.25,24.188-23.608
		c-39.611,21.588-75.895,48.512-102.592,85.427c-1.546,2.14-5.963,2.5-6.448-0.842c-2.806-19.349,0.702-38.349,8.877-56.02
		c11.516-24.896,30.303-45.86,50.702-64.526c-4.846-27.743-12.464-55.005-23.075-81.07
		c-30.143-74.038-89.676-144.47-169.655-165.006c-15.231-3.91-31.296-5.855-47.142-5.383c19.88,7.713,38.648,18.592,55.563,31.304
		c21.865,16.427,40.613,35.988,54.226,59.79c31.074,54.333,43.419,129.065-1.624,179.542c-1.756,1.967-5.292,0.939-5.896-1.557
		c-6.264-25.858-12.163-51.911-21.166-76.989c-7.978-22.22-18.712-43.321-32.597-62.446c-11.015-15.174-24.121-28.951-38.005-41.516
		c-6.583-5.959-13.502-11.626-20.691-16.915c4.728,4.78,9.146,9.629,13.165,14.352c13.892,16.328,26.295,34.311,35.611,53.655
		c10.362,21.513,16.758,45.585,21.151,68.972c9.55,50.828,6.379,110.563-34.859,147.34c-17.354,15.477-39.543,27.348-62.812,30.242
		c-10.859,1.351-22.044,0.421-32.165-3.92c-10.135-4.346-18.001-11.875-24.106-20.939c-11.827-17.561-18.854-38.014-29.086-56.485
		c-9.784-17.664-22.955-36.018-44.232-39.527c-4.477-0.737-2.566-7.536,1.876-6.802c0.024,0.004,0.047,0.015,0.071,0.018
		c-59.891-41.747-135.215-55.632-206.184-69.144c-25.915-4.935-52.194-9.543-77.551-16.929c-22.119-6.442-43.184-16.12-59.21-33.074
		c-2.928-3.097-7.364-1.812-10.585,0.777c-2.06,3.664-3.962,7.409-5.745,11.212c-0.871,2.626-1.681,5.261-2.51,7.893
		c19.482,13.627,42.22,23.862,61.915,31.877c27.873,11.341,56.532,20.545,84.85,30.678c23.03,8.241,45.6,16.985,65.7,31.14
		c27.8,19.583,54.047,42.36,76.046,68.341c19.631,23.183,41.122,54.156,36.259,86.28c-4.979,32.894-36.85,54.504-65.801,65.001
		c-31.102,11.278-68.458,14.812-100.241,4.172c-35.341-11.83-60.738-43.668-77.761-75.395
		c-13.464-25.095-23.18-52.177-30.263-79.841c0.356,8.513,0.921,17.017,1.803,25.497c7.162,68.834,32.086,134.422,67.281,193.674
		c1.792,3.017-1.8,6.656-4.827,4.828c-32.533-19.662-59.687-47.14-81.408-78.175c-18.966-27.099-35.123-57.817-44.476-89.645
		c-6.368-21.669-10.565-44.008-13.039-66.489c-0.09,14.701,0.288,29.461,1.445,44.31c4.131,52.94,15.14,105.273,30.623,156.144
		c-14.925-4.268-29.994-7.914-44.994-10.972c-99.908-20.36-207.949-9.718-293.055,49.873
		c-36.967,25.882-67.978,59.661-88.844,99.569c1.712-2.081,3.409-3.943,4.714-5.405c10.593-11.868,22.88-22.29,35.215-32.288
		c11.744-9.518,23.813-18.71,36.342-27.174c13.475-9.104,28.238-16.454,43.085-23.008c49.461-21.833,106.545-33.5,159.846-19.725
		c22.564,5.832,43.88,16.099,61.589,31.345c15.992,13.768,28.732,31.221,37.682,50.289c18.42,39.245,21.826,84.896,11.049,126.755
		c-0.919,3.572-5.693,3.124-6.803,0c-6.043-17.008-13.556-33.487-23.161-48.794c-15.127-24.108-35.449-44.331-59.516-59.503
		c-12.67-7.986-26.094-14.56-39.933-20.164c12.454,10.516,22.886,23.68,31.194,37.741c15.573,26.354,25.085,56.459,28.815,86.777
		c1.704,13.846,1.87,27.906,1.08,41.826c-0.846,14.882-3.017,31.386-12.409,43.539c-13.161,17.029-37.002,17.542-58.169,13.88
		c8.192,13.255,16.955,26.155,26.562,38.445c0.029,0.038,0.063,0.076,0.092,0.114c-7.025,1.559-14.006,3.372-20.862,5.661
		c-89.364,29.836-146.481,109.251-208.797,174.638c-16.64,17.462-34.767,36.98-58.572,44.188
		c-19.594,5.936-42.635,1.823-55.53-14.891c-0.335-0.434-0.755-0.654-1.152-0.932c-1.742,13.922,7.571,26.356,17.819,35.159
		c11.937,10.254,26.889,17.714,42.54,19.881c30.386,4.206,58.178-11.014,81.473-28.93c23.689-18.221,44.318-40.021,69.21-56.717
		c24.956-16.739,53.236-30.243,83.298-34.08c30.914-3.948,60.676,4.956,83.89,25.848c2.579,2.323-0.12,7.031-3.432,5.898
		c-13.094-4.482-26.894-4.747-40.33-1.615c-26.021,6.067-49.063,22.293-68.5,40.063c-13.674,12.5-26.267,26.407-37.204,41.447
		c27.782-17.067,62.166-22.669,92.374-6.904c16.599,8.663,28.828,22.892,38.895,38.383c10.856,16.705,17.78,35.813,21.699,55.281
		c7.695,38.224,5.236,78.84-3.282,116.732c-1.147,5.104-2.603,10.667-6.4,14.502c-3.542,3.579-8.566,5.029-13.367,5.982
		c-20.57,4.088-42.35,4.327-63.242,3.796c-29.964-0.761-60.025-4.713-89.147-12.156c24.15,10.447,49.158,18.958,74.649,25.532
		c8.698,2.244,17.538,4.215,26.439,5.946c-19.184,21.321-35.742,44.989-49.048,70.406c-6.394,12.214-11.619,24.759-16.191,37.501
		c10.732-15.323,24.896-28.072,40.251-38.63c14.286-9.82,30.03-18.121,46.611-23.316c19.169-6.005,40.224-8.925,60.261-9.422
		c20.417-0.508,42.174,2.119,59.633,13.508c2.365,1.541,2.314,5.812-0.842,6.448c-17.692,3.555-34.164,10.975-48.651,21.728
		c-25.821,19.163-43.987,47.254-56.665,76.409c-11.072,25.46-18.338,52.792-21.895,80.381c0.351-0.463,0.697-0.932,1.049-1.394
		c18.175-23.927,37.286-47.679,59.82-67.677c10.198-9.051,21.324-17.696,34.006-22.953c9.284-3.848,20.93-6.063,30.176-0.891
		c9.193,5.144,13.554,16.01,15.819,25.754c2.971,12.786,3.265,26.214,2.555,39.268c-1.479,27.182-8.361,52.675-21.592,76.59
		c-16.18,29.245-40.909,53.891-71.181,68.363c-15.466,7.394-32.001,12.063-49.025,14.021c-11.532,1.325-23.039,0.993-34.596,0.432
		c-43.722-2.118-88.154-6.704-130.661-17.787c40.889,36.964,93.878,58.551,148.295,68.956c75.093,14.362,155.813,8.703,226.02-22.78
		c8.088-3.626,15.945-7.693,23.659-11.996c8.745-16.681,19.618-32.262,31.986-45.938c23.988-26.526,58.252-50.138,95.677-46.701
		c2.859,0.262,4.903,3.759,2.495,6.022c-15.05,14.133-27.376,30.7-36.446,49.258c-28.995,59.327-23.364,128.667-17.289,193.063
		c3.272-10.215,6.587-20.418,10.119-30.547c8.799-25.232,18.93-50.191,32.897-73.049c14.657-23.988,33.467-44.975,55.533-62.369
		c1.373-1.083,3.681-1.592,4.988,0c3.382,4.113,6.441,8.461,9.004,13.133c22.889,41.716,9.723,95.334-7.065,136.723
		c-8.835,21.78-19.756,42.808-32.915,62.294c-7.387,10.94-15.066,20.967-25.34,29.261c-25.508,20.592-54.467,37.377-83.266,52.859
		c-20.975,11.274-42.657,22.143-65.013,31.012c10.111,0.942,20.232,1.758,30.433,2.054c19.421,0.562,38.881,0.346,58.277-0.787
		c38.71-2.258,77.091-8.435,114.317-19.366c52.272-15.352,102.168-40.871,144.189-75.808c-0.642-6.258,0.444-12.419,4.951-17.545
		c6.188-7.04,15.954-10.875,24.38-14.411c9.936-4.172,20.378-7.524,29.854-12.714c5.514-3.02,10.298-7.283,15.067-11.337
		c5.852-4.977,11.504-10.184,16.973-15.578c11.302-11.147,21.821-23.082,31.636-35.555c4.453-5.66,9.512-11.482,13.09-17.742
		c2.074-3.631,3.804-7.472,5.859-11.121c2.48-4.406,5.119-8.745,8.231-12.736c2.165-2.775,4.884-6.086,8.452-7.045
		c6.983-1.878,14.399,4.967,18.798,9.43c7.066,7.171,12.915,15.601,18.379,24.021c11.557,17.807,21.402,36.531,28.385,56.625
		c14.316,41.21,18.297,87.196,9.516,130.282c1.676-4.255,3.224-8.563,4.559-12.958c16.196-53.297,7.657-109.766,5.012-164.29
		c-0.143-2.941,3.041-4.034,5.308-3.045c37.97,16.554,59.408,56.376,69.516,94.698c10.004,37.933,10.288,77.675-1.204,115.309
		c-10.865,35.582-30.651,67.438-55.281,95.057c9.155-6.165,17.925-12.888,26.094-20.241c55.41-49.874,87.343-122.074,103.511-193.66
		c2.684-11.887,4.829-23.913,6.52-36.008c3.103,2.64,6.293,5.186,9.533,7.676c-2.532-3.653-4.975-7.361-7.233-11.182
		c-30.143-32.261-54.583-82.982-21.263-120.824c1.64-1.862,4.291-0.986,5.541,0.715c7.192,9.773,13.378,20.214,19.231,30.831
		c10.313,18.708,19.694,38.087,32.444,55.315c11.629,15.714,26.326,28.419,43.912,36.535c-7.978-15.955-14.796-32.571-20.57-49.441
		c-6.515-19.037-12.081-39.001-13.095-59.197c-0.736-14.696,1.237-32.132,14.425-41.1c13.758-9.353,33.024-7.07,48.316-3.736
		c19.443,4.235,38.251,11.991,55.851,21.18c15.393,8.037,29.089,17.498,41.36,29.821c36.657,36.807,60.16,86.482,72.668,136.444
		c6.468,25.836,9.929,52.276,9.072,78.92c-0.729,22.671-3.219,46.37,1.115,68.818c4.841,0.796,11.167-4.491,11.616-9.276
		c6.898-73.56,29.821-143.238,56.024-211.819c3.875-10.14,7.557-20.355,11.081-30.619c-1.326-1.232-1.962-3.43-0.527-5.249
		c1.579-2.002,2.973-4.131,4.34-6.275c0.714-2.233,1.528-4.435,2.209-6.678c0.488,0.097,0.981,0.158,1.469,0.255
		c3.513-6.708,6.331-13.803,8.532-21.001c7.545-24.673,9.678-50.859,9.961-76.545c0.264-23.895-1.269-47.833-4.304-71.531
		c-0.45-3.515,5.06-4.75,6.574-1.782c1.585,3.106,3.288,6.148,5.133,9.108c15.099,24.21,38.821,41.56,64.721,52.799
		c28.569,12.398,60.087,17.759,91.1,18.291c32.358,0.554,64.894-4.174,95.617-14.409c28.73-9.57,56.399-24.266,78.221-45.509
		c0.153-0.148,0.287-0.313,0.439-0.462c5.792-8.94,11.27-18.065,16.045-27.544c3.764-7.468-5.386-12.308-11.236-7.989
		c-46.76,34.546-112.822,15.789-152.622-20.269c-21.189-19.196-37.331-43.1-49.75-68.721c-1.504-3.102-2.928-6.231-4.297-9.378
		c2.223-0.095,4.435-0.352,6.654-0.511c-19.884-8.973-38.008-21.786-52.356-38.317c-18.437-21.242-29.938-47.426-34.354-75.126
		c-0.537-3.369,3.157-5.998,5.896-3.431c13.399,12.552,30.011,20.258,48.098,23.137c33.78,5.378,68.899-4.687,100.188-16.691
		c26.495-10.165,51.729-23.085,76.915-36.073c-1.213-0.033-2.424-0.097-3.637-0.109c-26.112-0.25-52.135,2.896-78.244,3.047
		c-23.492,0.138-50.443-1.068-70.761-14.343c-16.087-10.509-22.841-27.787-17.286-46.284c5.761-19.182,20.363-35.573,35.741-47.829
		c7.567-6.031,15.711-11.44,24.552-15.422c9.474-4.269,19.612-6.377,29.907-7.538c27.354-3.088,55.28,2.436,80.865,12.024
		c51.401,19.262,100.617,55.396,128.677,103.2c18,30.664,26.911,64.649,34.146,99.112c4.664-1.6,8.524-6.844,6.528-11.701
		c-12.205-29.695-15.396-62.359-21.472-93.639c-5.32-27.389-13.465-53.954-26.913-78.505c-9.542-17.418-21.219-33.601-34.517-48.367
		c-10.722-5.111-20.694-12-30.089-19.043c-13.23-9.918-25.748-20.727-38.57-31.157c-13.182-10.721-27.162-20.133-41.883-28.625
		c-31.44-18.135-65.353-30.216-101.09-36.457c-2.861-0.5-3.571-5.281-0.843-6.448c21.764-9.306,43.932-17.68,66.609-24.494
		c40.592-12.199,83.6-20.043,126.1-16.532c36.406,3.007,71.019,15.211,99.579,37.506c-5.217-9.341-11.902-17.773-20.166-24.818
		c-21.601-18.412-50.094-26.8-77.223-33.087c-26.997-6.252-54.734-9.948-81.17-18.453c-2.318-0.746-3.714-4.099-1.557-5.897
		c27.713-23.076,66.068-27.033,100.746-23.434c32.6,3.383,65.072,13.01,94.006,28.473c30.295,16.192,56.318,41.742,72.249,72.262
		c12.984,24.875,18.57,51.568,19.892,78.847C2292.362,1214.026,2291.201,1177.27,2279.783,1144.484z M1760.262,1160.018
		c0.892,28.813,4.236,57.529,9.794,85.815c-18.949,14.333-35.933,31.483-50.872,50.225c-18.601,23.337-33.967,49.123-47.037,75.913
		c-10.324,21.161-20.536,44.431-23.376,68.225c-2.624-5.743-5.087-11.551-7.236-17.474c-0.767-2.115-4.165,0.231-3.831,1.966
		c2.406,12.462,6.068,24.418,10.632,35.899c0.12,1.467,0.286,2.937,0.468,4.405c-34.048,12.357-66.394,29.793-95.26,51.014
		c-16.422,12.075-35.867,27.951-52.537,46.297c-28.101,1.35-56.23,7.798-82.785,17.698c-35.519,13.242-68.94,31.913-100.308,53.075
		c-18.42,12.427-37.664,26.535-51.541,44.351c-1.076-0.16-2.387,0.308-3.016,1.5c-1.685,3.19-3.177,6.466-4.677,9.739
		c-3.345,5.667-6.14,11.677-8.192,18.104c-0.403,1.263-0.348,2.26-0.118,3.128c-1.011,3.084-1.887,6.215-2.756,9.346
		c-11.816-6.9-24.757-12.252-38.606-16.209c-40.048-11.441-82.783-15.025-124.295-14.475c-22.901,0.303-46.546,1.733-69.734,5.375
		c-8.809-17.925-20.001-34.776-33.601-50.029c-22.268-24.977-50.576-45.213-82.091-56.711
		c-39.724-14.493-83.243-15.487-125.015-13.482c-4.059,0.195-7.958,5.351-8.497,9.558c-4.781,1.704-9.488,3.617-14.123,5.663
		c3.822-41.942-3.506-84.571-23.874-122.78c-19.601-36.768-47.458-70.511-78.783-97.894c-19.077-16.677-40.042-30.683-62.742-41.152
		c22.891-36.288,36.559-78.687,39.284-121.074c4.716-73.39-17.743-150.279-56.347-213.851
		c47.775-19.778,75.351-71.418,98.563-115.475c18.181-34.504,34.489-70.093,42.441-108.491c1.55-7.481,2.834-15.268,3.766-23.194
		c25.193-2.717,50.017-12.638,72.401-23.269c27.751-13.18,53.666-29.652,77.493-49.031c38.953-31.68,75.067-72.669,97.614-118.971
		c22.488,9.284,46.952,12.854,71.116,14.291c62.568,3.724,125.68-4.685,185.276-24.046c51.418,26.11,104.061,49.685,157.788,70.773
		c34.784,13.655,70.29,27.849,106.636,36.788c12.857,3.165,26.087,4.827,39.12,4.491c5.985,8.82,12.655,17.191,19.448,25.128
		c21.545,25.179,44.443,49.304,67.145,73.433c21.174,22.506,42.322,45.229,65.834,65.344c2.347,2.009,4.746,3.964,7.148,5.914
		c-5.29,10.876-8.463,22.391-9.847,34.209c-0.051,0.142-0.112,0.279-0.163,0.422c-0.335,0.932-0.326,1.632-0.19,2.232
		c-3.877,41.082,13.237,85.405,35.876,118.287c16.63,24.155,37.635,45.313,63.513,59.219
		C1762.396,1079.564,1759.012,1119.67,1760.262,1160.018z"/>
	<g>
		<circle style="fill:#E88D12;" cx="1141.49" cy="1130.741" r="690.531"/>
		
			<ellipse transform="matrix(0.7071 -0.7071 0.7071 0.7071 -456.1997 1134.605)" style="fill:#FCDE6B;" cx="1141.49" cy="1117.984" rx="619.491" ry="619.491"/>
		<path style="opacity:0.66;fill:#FCDE6B;" d="M1241.053,612.886c-24.517-15.988-53.06-25.986-81.345-32.87
			c-64.977-15.818-134.368-15.561-200.013-3.974c-5.201,0.918-10.423,1.942-15.65,3.015c-6.649,2.141-13.278,4.326-19.794,6.745
			c-30.311,11.252-60.043,26.091-85.176,46.645c-12.016,9.827-23.24,21.006-33.195,32.909c-8.224,9.836-15.737,20.691-20.599,32.616
			c-6.849,16.798-7.132,35.014,2.641,50.702c10.121,16.249,27.453,27.023,44.43,34.93c21.37,9.949,44.571,16,67.715,20.108
			c23.979,4.258,48.415,6.273,72.767,6.034c18.839-0.186,37.725-1.67,56.053-6.179c16.936-4.166,33.643-9.315,50.189-14.812
			c44.868-14.905,89.561-32.653,130.332-56.793c17.624-10.435,35.084-22.266,48.86-37.591c9.715-10.807,18.275-24.872,16.199-40.003
			C1271.943,635.97,1255.63,622.392,1241.053,612.886z"/>
		<path style="opacity:0.66;fill:#FCDE6B;" d="M1256.869,569.007c-5.184,4.5-9.288,10.697-9.328,17.721
			c-0.045,8.135,5.385,14.936,11.587,19.657c10.309,7.844,23.235,11.843,35.781,14.368c4.273,0.86,8.64,1.493,13.01,1.315
			c2.589-0.105,4.851-0.463,6.717-1.741c0.809-0.552,1.386-1.615,1.377-2.884c-0.01-1.591-0.628-4.003-1.432-5.733
			c-2.968-6.396-7.784-11.875-12.735-16.808c-11.928-11.888-26.847-22.159-43.001-27.435
			C1258.184,567.973,1257.509,568.453,1256.869,569.007z"/>
		<path style="opacity:0.67;fill:#E88D12;" d="M891.848,660.001c-20.19-10.746-42.356-16.314-65.114-17.623
			c-21.898-1.26-44.335,1.42-64.526,10.349c-36.667,16.217-58.879,49.827-69.629,87.113c4.786-2.496,9.645-4.84,14.558-6.993
			c34.988-15.33,72.867-24.216,110.597-29.53c39.535-5.568,82.276-11.654,119.958,4.374
			C929.912,686.353,911.655,670.543,891.848,660.001z"/>
		<path style="opacity:0.67;fill:#E88D12;" d="M1415.466,656.451c-36.48,3.498-70.029,21.398-92.522,49.695
			c2.527-0.375,5.052-0.714,7.561-0.995c36.544-4.093,74.143,0.348,110.164,6.777c40.814,7.285,79.831,20.717,115.474,41.861
			c-4.509-21.649-14.18-41.912-29.466-58.161C1498.447,665.616,1455.955,652.57,1415.466,656.451z"/>
		<path style="opacity:0.67;fill:#E88D12;" d="M1417.962,1265.694c0.127,0.205,0.191,0.427,0.276,0.648
			c1.382,1.068,2.766,2.129,4.138,3.226c3.547,2.837-1.477,7.798-4.989,4.988c-1.324-1.058-2.664-2.072-3.998-3.101
			c-36.007,15.182-73.142,27.589-111.082,36.955c-35.06,8.656-70.756,14.817-106.712,18.207
			c-36.869,3.475-74.105,2.46-110.972-0.486c-36.166-2.889-72.958-6.477-108.423-14.319c-34.217-7.565-67.991-18.419-103.099-20.843
			c3.775,4.749,8.252,8.912,12.747,12.988c5.682,5.15,11.529,10.192,16.467,16.085c5.223,6.235,8.849,13.824,12.056,21.253
			c6.534,15.136,10.675,31.084,15.315,46.862c9.218,31.339,17.757,62.548,32.311,91.974c14.259,28.83,33.005,55.529,57.021,77.072
			c19.041,17.083,42.933,28.399,67.836,33.826c50.31,10.966,103.781-1.406,149.237-23.809
			c45.25-22.304,87.225-56.066,113.698-99.487c33.328-54.669,24.456-124.146,57.087-179.193c1.05-1.77,3.084-2.061,4.827-1.264
			c11.754,5.385,19.152,17.373,25.81,28.427c4.42-12.9,4.169-26.933-4.856-38.159
			C1428.619,1272.526,1423.535,1268.709,1417.962,1265.694z"/>
		<path style="opacity:0.67;fill:#E88D12;" d="M1162.845,1201.64c-20.004,6.419-41.112,11.932-62.242,12.214
			c-16.433,0.218-34.67-3.954-41.711-20.116c-1.819,4.136-3.247,8.446-4.152,12.859c-0.05,0.243-0.176,0.394-0.258,0.601
			c0.756,3.691,2.426,7.255,5.594,10.473c8.847,8.986,22.486,12.545,34.54,14.471c15.041,2.405,30.815,2.086,45.802-0.553
			c19.056-3.357,51.191-14.076,44.817-37.928C1177.848,1196.532,1170.39,1199.219,1162.845,1201.64z"/>
		<path style="opacity:0.67;fill:#E88D12;" d="M1647.314,1187.606c-2.016,0.005-3.397-1.63-3.527-3.528
			c-0.365-5.34,0.17-10.652,1.112-15.909c2.109-11.776,6.307-23.059,9.887-34.438c3.698-11.753,6.16-23.897,8.717-35.94
			c6.195-29.187,10.336-58.568,11.939-88.366c2.486-46.232-2.836-95.313-28.523-135.014
			c-23.558-36.416-62.828-62.725-103.512-76.329c-39.788-13.305-82.91-15.62-124.201-8.846
			c-23.335,3.827-46.147,10.562-67.838,19.891c-0.536,0.336-1.096,0.631-1.628,0.97c-31.108,19.841-57.29,47.071-77.433,77.884
			c-20.368,31.157-34.858,66.184-41.927,102.755c-6.826,35.31-6.45,72.302,3.453,107c10.25,35.919,30.848,67.719,59.055,92.148
			c2.386,2.067,0.39,6.002-2.494,6.022c-20.993,0.156-40.469,6.846-58.663,16.549c30.814,0.869,61.559,3.395,92.236,6.36
			c62.98,6.089,126.133,13.819,189.529,11.959c59.971-1.762,119.59-13.373,172.531-42.164
			C1673.403,1186.247,1659.979,1187.568,1647.314,1187.606z"/>
		<path style="opacity:0.67;fill:#E88D12;" d="M1014.073,932.187c-7.864-21.874-18.577-42.345-31.199-61.625
			c-7.09-9.586-14.996-18.583-23.853-26.784c-50.775-47.006-120.898-63.714-188.495-53.975
			c-60.294,8.688-116.854,37.74-155.73,85.175c-36.572,44.62-53.585,103.2-47.583,160.51c2.959,28.251,8.107,56.53,17.287,83.461
			c8.985,26.358,22.534,53.303,45.293,70.383c2.338,1.753,2.314,5.534-0.843,6.447c-20.469,5.919-41.466,14.56-59.101,27.156
			c30.659-5.492,61.733-8.251,92.897-8.361c31.62-0.112,63.19,2.153,94.641,5.237c31.557,3.093,62.947,7.186,94.658,8.426
			c56.169,2.198,113.481-3.342,163.936-29.262c-5.686-1.045-11.373-2.074-17.045-3.196c-2.188-0.432-3.282-3.365-2.108-5.183
			c17.393-26.907,24.335-59.568,28.183-90.954c3.379-27.555,5.302-55.937,4.618-83.709
			C1028.926,987.371,1023.741,959.08,1014.073,932.187z"/>
		<path style="fill:#723B00;" d="M1141.491,1828.327c-384.652,0-697.587-312.938-697.587-697.586
			c0-384.649,312.935-697.587,697.587-697.587c384.654,0,697.587,312.937,697.587,697.587
			C1839.078,1515.39,1526.144,1828.327,1141.491,1828.327z M1141.491,447.265c-376.867,0-683.475,306.605-683.475,683.476
			c0,376.87,306.608,683.475,683.475,683.475s683.476-306.605,683.476-683.475C1824.967,753.87,1518.358,447.265,1141.491,447.265z"
			/>
	</g>
	<g>
		<path style="fill:#B46C44;" d="M1566.59,1203.269c0.179,1.029,2.757,1.735,3.551,1.162c27.477-19.817,50.144-47.142,67.782-75.877
			c6.861-11.18,13.012-22.845,18.267-34.887c9.198-31.222,13.263-63.865,12.955-96.395c-0.373-39.407-8.039-80.269-28.785-114.293
			c-16.624-27.266-40.66-49.064-68.7-64.197c-58.579-31.612-130.489-32.329-189.798-2.414
			c-61.054,30.797-107.493,89.053-126.159,154.64c-11.774,41.372-13.437,85.118-5.963,127.43c0.723,4.092,1.584,8.158,2.457,12.223
			c1.253,3.498,2.505,6.999,3.87,10.457c12.24,31.012,29.478,61.187,57.665,80.151c6.153,4.14,12.564,7.82,19.14,11.179
			c12.608,3.476,25.7,5.088,38.692,6.402c17.98,1.82,36.046,2.79,54.118,2.912c34.969,0.236,70.357-2.126,104.75-8.655
			C1541.794,1210.952,1554.54,1207.929,1566.59,1203.269z"/>
		<path style="fill:#FFFFFF;" d="M1340.86,1200.606c-26.57-6.261-47.3-22.669-60.454-46.459
			c-5.787-10.468-10.058-21.559-13.47-32.938c-0.685-3.224-1.385-6.45-1.978-9.663c-6.623-35.857-7.256-73.063-0.545-108.953
			c11.508-61.543,46.828-118.728,98.781-154.132c15.533-8.018,32.207-14.37,49.124-18.204c39.751-9.011,80.853-5.906,118.224,10.654
			c35.798,15.864,67.141,42.825,86.337,77.149c23.105,41.312,27.674,90.494,19.084,136.528
			c-8.859,47.483-31.616,90.899-59.487,129.956c-2.242,1.363-4.516,2.688-6.98,3.824c-11.766,5.423-24.365,8.772-37.048,11.232
			c-31.645,6.133-64.252,8.807-96.461,9.036C1404.569,1208.859,1371.561,1207.839,1340.86,1200.606z"/>
		<g>
			<g>
				
					<ellipse transform="matrix(0.7071 -0.7071 0.7071 0.7071 -292.4554 1326.2606)" style="fill:#008DD2;" cx="1454.711" cy="1016.155" rx="174.311" ry="174.311"/>
				<path style="fill:#134477;" d="M1454.708,1193.995c-98.06,0-177.834-79.78-177.834-177.84
					c0-98.061,79.773-177.837,177.834-177.837c98.06,0,177.84,79.776,177.84,177.837
					C1632.547,1114.215,1552.767,1193.995,1454.708,1193.995z M1454.708,845.374c-94.167,0-170.778,76.611-170.778,170.782
					s76.61,170.784,170.778,170.784c94.173,0,170.784-76.613,170.784-170.784S1548.881,845.374,1454.708,845.374z"/>
			</g>
			
				<ellipse transform="matrix(0.2234 -0.9747 0.9747 0.2234 139.2803 2207.1201)" style="fill:#003558;" cx="1454.71" cy="1016.155" rx="127.679" ry="127.679"/>
			<path style="fill:#FFFFFF;" d="M1398.265,909.161c-6.493-8.985-17.802-12.708-28.561-11.216
				c-11.653,1.617-22.268,8.25-30.765,16.106c-16.693,15.435-31.042,43.096-15.784,64.08c7.399,10.178,20.43,11.99,31.833,8.46
				c2.61-0.808,5.114-1.922,7.536-3.212c7.987-2.633,15.363-7.467,21.59-12.837C1401.259,955.758,1413.044,929.607,1398.265,909.161
				z"/>
			<path style="fill:#FFFFFF;" d="M1349.787,1014.554c-0.21-0.64-0.522-1.219-0.888-1.781c-0.74-1.135-1.499-2.352-2.548-3.244
				c-2.165-1.841-4.498-3.048-7.341-3.455c-3.754-0.536-7.541,0.609-10.71,2.579c-2.501,1.555-4.996,4.019-6.418,6.611
				c-1.36,2.476-1.885,3.658-2.534,6.405c-0.327,1.384-0.305,2.824-0.266,4.24c0.036,1.365,0.482,2.813,0.968,4.047
				c0.126,0.32,0.289,0.615,0.472,0.905c0.539,0.855,1.103,1.801,1.822,2.531c0.933,0.947,2.104,1.724,3.371,2.296
				c0.142,0.096,0.279,0.198,0.421,0.294c0.478,0.325,0.971,0.599,1.521,0.785c1.076,0.362,2.225,0.742,3.374,0.801
				c2.507,0.127,4.954-0.186,7.293-1.16c2.552-1.062,4.998-2.618,6.924-4.616c1.893-1.966,3.741-4.458,4.55-7.102
				c0.71-2.318,0.924-3.619,0.876-6.04C1350.647,1017.244,1350.227,1015.886,1349.787,1014.554z"/>
		</g>
		<g>
			<path style="fill:#231F20;" d="M1677.611,987.885C1678.088,987.592,1678.547,987.245,1677.611,987.885L1677.611,987.885z"/>
			<path style="fill:#60330F;" d="M1729.223,1103.306c-11.312,5.367-23.228,7.703-35.704,8.071
				c-5.975,0.176-11.948-0.223-17.853-1.164c-5.199-0.829-11.292-2.855-16.693-1.955c4.416-10.79,8.055-21.974,10.793-33.573
				c2.15-9.116,3.625-18.356,4.711-27.632c0.085-0.003,0.154,0.008,0.242,0.005c1.388-0.058,2.807-0.15,4.173-0.408
				c3.382-0.639,6.807-1.781,10.044-2.948c5.853-2.109,11.89-4.79,16.982-8.388c4.964-3.509,9.59-7.399,13.51-12.053
				c3.827-4.544,7.269-9.5,10.508-14.476c1.441-2.213-1.275-4.021-2.94-2.064c-6.456,7.586-15.513,12.78-24.414,16.403
				c-2.321,0.945-4.606,1.976-6.959,2.842c-1.186,0.436-2.382,0.843-3.588,1.22c-0.671,0.211-1.346,0.407-2.02,0.604
				c-0.121,0.036-0.274,0.076-0.415,0.114c-4.201,1.034-9.397,1.232-13.769,2.692c0.428-8.866,0.326-17.742-0.211-26.59
				c3.74-2.39,7.273-5.161,10.518-7.952c2.725-2.346,5.376-4.833,7.628-7.643c1.962-2.448,3.472-5.056,4.796-7.87
				c0.331-0.402,0.663-0.803,0.99-1.208c0.793-0.985,0.862-2.699-0.218-3.471c-1.129-0.807-2.812-0.204-3.684,0.731
				c-1.115,1.195-2.522,1.794-3.932,2.591c-1.486,0.841-2.925,1.824-4.368,2.74c-2.991,1.9-5.869,3.908-8.995,5.595
				c-0.306,0.165-0.658,0.303-0.943,0.502c0.109-0.076,0.115-0.078,0.199-0.136c-0.101,0.062-0.206,0.129-0.286,0.168
				c-0.778,0.381-1.565,0.744-2.348,1.117c-0.232,0.11-0.47,0.203-0.703,0.312c-2.155-17.603-6.223-34.976-12.446-51.713
				c-31.741-85.346-112.622-147.326-204.732-147.577c-51.486-0.14-101.035,19.695-138.571,54.789
				c-1.886,1.763-0.198,4.943,2.165,3.157c67.503-51.009,166.871-53.101,237.289-7.196
				c70.838,46.179,108.237,132.929,95.684,216.041c-6.399,42.364-23.626,85.682-50.212,119.932c-1.178,0.54-2.284,1.225-3.098,2.086
				c-1.024,1.083-1.88,2.315-2.473,3.685c-0.16,0.372-0.301,0.847-0.412,1.36c-1.701,2.003-3.297,4.112-5.067,6.04
				c-4.637,5.052,0.838,10.765,5.844,5.909c1.216-1.178,2.319-2.442,3.51-3.64c0.127,0.07,0.231,0.177,0.358,0.245
				c1.049,0.555,2.123,1.063,3.215,1.526c2.572,1.088,5.387,2.144,8.158,2.496c2.713,0.343,5.377,0.255,8.099,0.338
				c0.697,0.021-0.524-0.022,0.186,0.039c0.285,0.025,0.573,0.03,0.859,0.041c0.648,0.025,1.297,0.013,1.944,0.03
				c1.262,0.034,2.518,0.141,3.783,0.139c2.113-0.002,4.254-1.214,4.985-3.309c0.584-1.672,0.183-4.038-1.997-4.208
				c-2.638-0.204-4.586-0.46-6.948-1.858c-0.508-0.301-1.011-0.615-1.505-0.939c-0.005-0.004-0.25-0.17-0.436-0.294
				c-0.159-0.115-0.379-0.274-0.431-0.313c-1.343-1.007-2.651-2.028-4.032-2.988l1.252,0.882c-1.475-1.047-2.88-2.183-4.198-3.422
				c-0.422-0.397-0.821-0.818-1.225-1.233c3.512-3.986,6.979-8.004,10.25-12.154c2.726,1.271,5.939,1.943,8.815,2.55
				c5.756,1.215,11.363,1.628,17.24,1.497c5.558-0.124,11.042-0.649,16.439-2.009c5.489-1.383,10.584-3.622,16.024-5.106
				c2.665-0.727,3.763-6.301,0.114-5.519c-2.749,0.589-4.87,0.669-7.644,0.365c-2.159-0.236-4.324-0.336-6.481-0.624
				c-4.624-0.618-9.257-1.179-13.809-2.227c-4.345-1-8.659-2.145-12.822-3.568c-1.925-0.658-3.828-1.408-5.732-2.037
				c5.815-8.7,11.115-17.713,15.77-27.076c4.493,3.532,12.608,3.441,17.63,3.44c7.315-0.002,14.655-0.455,21.843-1.888
				c13.953-2.781,27.27-8.423,39.444-15.72C1734.032,1107.575,1733.604,1101.227,1729.223,1103.306z"/>
		</g>
	</g>
	<g>
		<path style="fill:#B46C44;" d="M733.879,1213.108c34.394,6.529,69.782,8.89,104.75,8.655c18.073-0.122,36.138-1.092,54.119-2.912
			c12.992-1.314,26.083-2.926,38.691-6.402c6.578-3.359,12.988-7.039,19.141-11.179c28.187-18.964,45.425-49.138,57.665-80.151
			c1.365-3.458,2.616-6.959,3.869-10.457c0.872-4.065,1.735-8.131,2.458-12.223c7.472-42.311,5.811-86.058-5.964-127.43
			c-18.666-65.587-65.104-123.843-126.159-154.64c-59.308-29.915-131.219-29.198-189.797,2.414
			c-28.041,15.133-52.076,36.931-68.701,64.197c-20.746,34.024-28.412,74.886-28.785,114.293
			c-0.308,32.53,3.757,65.174,12.956,96.395c5.255,12.042,11.405,23.707,18.266,34.887c17.639,28.735,40.306,56.06,67.782,75.877
			c0.794,0.573,3.372-0.133,3.551-1.162C709.771,1207.929,722.518,1210.952,733.879,1213.108z"/>
		<path style="fill:#FFFFFF;" d="M828.323,1208.636c-32.208-0.229-64.817-2.904-96.462-9.036
			c-12.682-2.459-25.282-5.809-37.047-11.232c-2.464-1.135-4.738-2.461-6.981-3.824c-27.87-39.057-50.627-82.473-59.486-129.956
			c-8.589-46.033-4.021-95.216,19.083-136.528c19.197-34.325,50.54-61.285,86.338-77.149c37.37-16.559,78.472-19.664,118.224-10.654
			c16.915,3.834,33.59,10.186,49.124,18.204c51.954,35.403,87.272,92.588,98.781,154.132c6.711,35.89,6.078,73.096-0.545,108.953
			c-0.594,3.213-1.293,6.439-1.979,9.663c-3.412,11.379-7.683,22.47-13.47,32.938c-13.154,23.79-33.883,40.198-60.453,46.459
			C892.751,1207.839,859.742,1208.859,828.323,1208.636z"/>
		<g>
			<g>
				
					<ellipse transform="matrix(0.7071 -0.7071 0.7071 0.7071 -481.4037 870.0989)" style="fill:#008DD2;" cx="809.6" cy="1016.155" rx="174.311" ry="174.311"/>
				<path style="fill:#134477;" d="M809.603,1193.995c-98.061,0-177.841-79.78-177.841-177.84
					c0-98.061,79.78-177.837,177.841-177.837c98.06,0,177.84,79.776,177.84,177.837
					C987.442,1114.215,907.662,1193.995,809.603,1193.995z M809.603,845.374c-94.174,0-170.785,76.611-170.785,170.782
					s76.611,170.784,170.785,170.784c94.173,0,170.784-76.613,170.784-170.784S903.776,845.374,809.603,845.374z"/>
			</g>
			
				<ellipse transform="matrix(0.2236 -0.9747 0.9747 0.2236 -361.8322 1578.0891)" style="fill:#003558;" cx="809.6" cy="1016.155" rx="127.679" ry="127.679"/>
			<path style="fill:#FFFFFF;" d="M753.155,909.161c-6.493-8.985-17.802-12.708-28.561-11.216
				c-11.653,1.617-22.268,8.25-30.765,16.106c-16.693,15.435-31.042,43.096-15.784,64.08c7.4,10.178,20.431,11.99,31.833,8.46
				c2.61-0.808,5.115-1.922,7.536-3.212c7.987-2.633,15.363-7.467,21.59-12.837C756.149,955.758,767.934,929.607,753.155,909.161z"
				/>
			<path style="fill:#FFFFFF;" d="M704.677,1014.554c-0.21-0.64-0.522-1.219-0.888-1.781c-0.739-1.135-1.499-2.352-2.548-3.244
				c-2.165-1.841-4.497-3.048-7.34-3.455c-3.755-0.536-7.542,0.609-10.711,2.579c-2.502,1.555-4.996,4.019-6.418,6.611
				c-1.36,2.476-1.885,3.658-2.534,6.405c-0.327,1.384-0.305,2.824-0.266,4.24c0.037,1.365,0.482,2.813,0.968,4.047
				c0.126,0.32,0.289,0.615,0.473,0.905c0.538,0.855,1.102,1.801,1.821,2.531c0.933,0.947,2.105,1.724,3.371,2.296
				c0.143,0.096,0.279,0.198,0.421,0.294c0.478,0.325,0.971,0.599,1.521,0.785c1.076,0.362,2.226,0.742,3.374,0.801
				c2.508,0.127,4.954-0.186,7.294-1.16c2.553-1.062,4.998-2.618,6.924-4.616c1.894-1.966,3.741-4.458,4.55-7.102
				c0.71-2.318,0.924-3.619,0.876-6.04C705.537,1017.244,705.117,1015.886,704.677,1014.554z"/>
		</g>
		<g>
			<path style="fill:#231F20;" d="M586.7,987.885C586.224,987.592,585.765,987.245,586.7,987.885L586.7,987.885z"/>
			<path style="fill:#60330F;" d="M535.088,1103.306c11.312,5.367,23.228,7.703,35.703,8.071c5.976,0.176,11.948-0.223,17.854-1.164
				c5.199-0.829,11.291-2.855,16.692-1.955c-4.417-10.79-8.056-21.974-10.792-33.573c-2.151-9.116-3.625-18.356-4.711-27.632
				c-0.086-0.003-0.155,0.008-0.243,0.005c-1.388-0.058-2.808-0.15-4.174-0.408c-3.381-0.639-6.806-1.781-10.044-2.948
				c-5.852-2.109-11.89-4.79-16.982-8.388c-4.964-3.509-9.59-7.399-13.51-12.053c-3.827-4.544-7.269-9.5-10.508-14.476
				c-1.44-2.213,1.274-4.021,2.941-2.064c6.455,7.586,15.512,12.78,24.413,16.403c2.322,0.945,4.606,1.976,6.96,2.842
				c1.185,0.436,2.381,0.843,3.587,1.22c0.671,0.211,1.346,0.407,2.021,0.604c0.121,0.036,0.273,0.076,0.415,0.114
				c4.201,1.034,9.396,1.232,13.769,2.692c-0.429-8.866-0.327-17.742,0.21-26.59c-3.739-2.39-7.272-5.161-10.517-7.952
				c-2.725-2.346-5.376-4.833-7.628-7.643c-1.963-2.448-3.473-5.056-4.797-7.87c-0.331-0.402-0.663-0.803-0.99-1.208
				c-0.793-0.985-0.862-2.699,0.218-3.471c1.13-0.807,2.812-0.204,3.684,0.731c1.115,1.195,2.523,1.794,3.932,2.591
				c1.485,0.841,2.924,1.824,4.367,2.74c2.992,1.9,5.869,3.908,8.995,5.595c0.306,0.165,0.658,0.303,0.944,0.502
				c-0.109-0.076-0.116-0.078-0.201-0.136c0.101,0.062,0.207,0.129,0.286,0.168c0.778,0.381,1.566,0.744,2.348,1.117
				c0.232,0.11,0.47,0.203,0.703,0.312c2.155-17.603,6.223-34.976,12.447-51.713c31.741-85.346,112.622-147.326,204.732-147.577
				c51.485-0.14,101.034,19.695,138.57,54.789c1.885,1.763,0.198,4.943-2.165,3.157c-67.504-51.009-166.872-53.101-237.29-7.196
				c-70.838,46.179-108.237,132.929-95.683,216.041c6.399,42.364,23.626,85.682,50.211,119.932c1.179,0.54,2.285,1.225,3.099,2.086
				c1.024,1.083,1.879,2.315,2.472,3.685c0.161,0.372,0.301,0.847,0.413,1.36c1.7,2.003,3.298,4.112,5.066,6.04
				c4.637,5.052-0.837,10.765-5.844,5.909c-1.216-1.178-2.318-2.442-3.509-3.64c-0.128,0.07-0.231,0.177-0.359,0.245
				c-1.048,0.555-2.122,1.063-3.216,1.526c-2.571,1.088-5.387,2.144-8.157,2.496c-2.714,0.343-5.378,0.255-8.099,0.338
				c-0.698,0.021,0.524-0.022-0.186,0.039c-0.286,0.025-0.573,0.03-0.86,0.041c-0.648,0.025-1.297,0.013-1.944,0.03
				c-1.263,0.034-2.518,0.141-3.783,0.139c-2.112-0.002-4.254-1.214-4.984-3.309c-0.584-1.672-0.183-4.038,1.997-4.208
				c2.638-0.204,4.586-0.46,6.947-1.858c0.51-0.301,1.011-0.615,1.506-0.939c0.005-0.004,0.25-0.17,0.436-0.294
				c0.159-0.115,0.38-0.274,0.431-0.313c1.342-1.007,2.651-2.028,4.031-2.988l-1.252,0.882c1.476-1.047,2.88-2.183,4.199-3.422
				c0.422-0.397,0.821-0.818,1.225-1.233c-3.513-3.986-6.979-8.004-10.25-12.154c-2.727,1.271-5.94,1.943-8.815,2.55
				c-5.757,1.215-11.364,1.628-17.24,1.497c-5.559-0.124-11.042-0.649-16.439-2.009c-5.489-1.383-10.585-3.622-16.024-5.106
				c-2.665-0.727-3.763-6.301-0.113-5.519c2.748,0.589,4.87,0.669,7.644,0.365c2.158-0.236,4.324-0.336,6.48-0.624
				c4.624-0.618,9.257-1.179,13.81-2.227c4.344-1,8.659-2.145,12.821-3.568c1.926-0.658,3.828-1.408,5.733-2.037
				c-5.815-8.7-11.115-17.713-15.771-27.076c-4.492,3.532-12.607,3.441-17.629,3.44c-7.316-0.002-14.656-0.455-21.843-1.888
				c-13.953-2.781-27.27-8.423-39.445-15.72C530.279,1107.575,530.707,1101.227,535.088,1103.306z"/>
		</g>
	</g>
	<g>
		<path style="fill:#60330F;" d="M1430.955,1283.989c-1.588-4.834-5.219-8.751-9.432-11.453c-5.04-3.232-11.305-3.718-17.11-2.955
			c-3.294,0.433-6.519,1.237-9.552,2.596c-3.042,1.364-5.919,2.946-8.781,4.646c-1.484,0.882-2.72,2.769-2.705,4.502
			c0.011,1.222,0.716,2.596,1.971,2.971c0.04,0.703,0.169,1.398,0.428,2.071c0.467,1.214,1.147,2.214,1.907,3.137
			c-10.415,3.838-20.672,8.56-30.88,12.201c-16.79,5.99-33.614,11.859-50.676,17.037c-34.911,10.596-70.583,18.577-106.701,23.769
			c-68.821,9.89-138.541,7.208-205.898-10.434c-37.963-9.943-72.476-27.334-108.8-41.568c-2.509-0.983-6.762,2.956-4.305,5.218
			c10.44,9.608,22.351,17.494,34.961,24.258c25.354,31.677,37.516,70.315,50.905,108.548
			c15.763,45.012,38.218,85.039,80.085,110.441c41.761,25.338,93.582,32.365,140.792,20.505
			c48.548-12.197,91.359-42.715,122.211-81.787c19.796-25.073,34.165-53.931,46.827-83.11c7.031-16.205,13.714-32.568,20.454-48.896
			c6.177-14.959,13.252-30.03,18.141-45.528c1.684-0.888,3.447-1.685,5.075-2.633c0.397,0.215,0.794,0.432,1.19,0.649
			c5.083,2.77,10.159,5.555,15.257,8.298c1.768,0.951,4.579,0.692,6.345-0.05c2.381-1,4.538-2.636,5.946-4.829
			C1432.082,1296.187,1432.956,1290.079,1430.955,1283.989z"/>
		<path style="fill:#F16476;" d="M1352.504,1373.771c-10.79,26.686-21.938,53.44-37.215,77.931
			c-26.748,42.878-67.813,74.927-116.079,90.047c-45.584,14.279-95.632,8.973-137.23-14.508
			c-20.598-11.628-38.926-27.639-52.201-47.31c-12.156-18.009-20.238-38.428-27.931-58.632
			c-11.431-30.023-21.923-65.198-43.184-90.331c10.74,4.455,21.682,8.36,32.497,11.858c33.218,10.737,67.687,17.233,102.456,20.155
			c72.773,6.117,145.633-3.851,215.576-24.048c20.276-5.855,40.376-12.466,60.116-19.934c9.583-3.626,19.813-7.298,29.799-11.465
			C1369.117,1329.042,1361.321,1351.969,1352.504,1373.771z"/>
		<path style="fill:#FFFFFF;" d="M1043.735,1412.44c24.453,21.567,56.544,32.427,88.881,33.383
			c34.063,1.007,68.144-8.246,97.76-24.908c31.227-17.566,57.556-43.544,74.537-75.177c2.408-4.488,4.602-9.061,6.593-13.709
			c-7.419,2.368-14.837,4.744-22.313,6.903c-69.943,20.197-142.804,30.165-215.577,24.048c-23.431-1.969-46.693-5.721-69.561-11.141
			C1012.276,1374.849,1025.1,1396.006,1043.735,1412.44z"/>
		<path style="fill:#CFD1D2;" d="M1289.193,1338.933c-69.943,20.198-142.804,30.164-215.577,24.048
			c-23.431-1.969-46.693-5.721-69.561-11.14c4.381,12.26,10.118,23.967,17.298,34.743c-0.033-0.822-0.097-1.654-0.105-2.465
			c-0.015-1.579,1.113-2.95,2.59-3.401c9.741-2.979,20.505-0.376,30.046,2.179c11.033,2.954,21.803,7.152,33.252,8.127
			c27.057,2.301,54.364,1.297,81.163-3.109c12.119-1.993,24.405-4.282,36.113-8.055c10.928-3.521,21.505-8.039,32.247-12.068
			c10.479-3.93,21.184-7.557,32.32-9.036c7.747-1.029,16.966-0.984,23.248,4.413c0.414,0.354,0.662,0.811,1.027,1.197
			c4.222-5.979,8.182-12.153,11.659-18.63c2.408-4.485,4.602-9.06,6.593-13.708
			C1304.088,1334.399,1296.67,1336.773,1289.193,1338.933z"/>
		<path style="fill:#BF4355;" d="M1153.004,1485.756c-23.979,2.042-48.03,7.784-69.38,19.127
			c-9.873,5.248-18.893,11.712-26.996,19.149c1.773,1.088,3.542,2.187,5.35,3.209c41.599,23.48,91.647,28.786,137.23,14.508
			c27.705-8.678,52.909-23.087,74.522-41.767C1234.672,1488.294,1193.459,1482.313,1153.004,1485.756z"/>
	</g>
	<path style="fill:#60330F;" d="M1162.35,1162.277c-22.73-3.669-46.102-2.067-68.263,4.031
		c-11.565,3.182-22.685,7.718-33.238,13.414c-7.726,4.172-16.276,10.324-16.674,19.962c-0.451,10.917,11.737,17.776,20.099,22.093
		c12.112,6.253,24.88,9.004,38.357,10.424c1.13,0.118,2.892-2.163,1.375-2.609c-8.833-2.601-55.347-23.348-45.934-35.249
		c2.811-3.553,9.732-6.035,13.635-7.856c4.971-2.319,10.064-4.374,15.259-6.139c10.288-3.495,20.924-5.788,31.724-6.965
		c10.841-1.18,21.767-1.171,32.603,0.076c10.141,1.168,21.346,2.729,30.163,8.235c7.94,4.959,14.905,16.071,7.67,24.548
		c-5.353,6.273-15.417,9.526-22.922,12.247c-4.161,1.509-6.596,10.742-0.192,9.37c16.046-3.439,35.588-11.478,37.971-30.134
		C1206.986,1174.227,1180.558,1165.217,1162.35,1162.277z"/>
	<path style="fill:#FFB9AA;" d="M1740.372,1286.602c-18.282-41.21-62.794-54.235-106.088-54.421
		c-46.083-6.022-97.972,2.736-132.18,36.015c-16.242,15.802-25.068,37.573-19.406,60.107c6.081,24.2,25.146,41.683,46.762,52.628
		c45.265,22.921,101.922,28.111,149.92,11.084c22.086-7.835,44.789-20.798,57.527-41.145
		C1749.083,1331.419,1749.586,1307.371,1740.372,1286.602z"/>
	<path style="fill:#FFB9AA;" d="M800.754,1286.602c-18.283-41.21-62.794-54.235-106.088-54.421
		c-46.083-6.022-97.972,2.736-132.18,36.015c-16.243,15.802-25.068,37.573-19.406,60.107c6.081,24.2,25.146,41.683,46.762,52.628
		c45.266,22.921,101.922,28.111,149.92,11.084c22.086-7.835,44.788-20.798,57.527-41.145
		C809.465,1331.419,809.968,1307.371,800.754,1286.602z"/>
	<path style="fill:#FFB9AA;" d="M646.715,1269.334c-4.966-11.194-17.057-14.733-28.818-14.783
		c-12.518-1.636-26.613,0.743-35.905,9.783c-4.411,4.292-6.809,10.207-5.271,16.328c1.652,6.574,6.831,11.323,12.702,14.296
		c12.296,6.226,27.685,7.636,40.723,3.011c6-2.128,12.167-5.65,15.626-11.177C649.081,1281.509,649.218,1274.976,646.715,1269.334z"
		/>
	<path style="fill:#FFB9AA;" d="M701.461,1263.013c-2.418-5.452-8.308-7.175-14.034-7.199c-6.096-0.797-12.961,0.362-17.486,4.765
		c-2.148,2.09-3.316,4.971-2.567,7.952c0.804,3.202,3.326,5.515,6.185,6.962c5.989,3.033,13.484,3.719,19.834,1.467
		c2.922-1.037,5.925-2.752,7.61-5.443C702.613,1268.942,702.679,1265.76,701.461,1263.013z"/>
	<path style="fill:#442100;" d="M1558.264,716.383c-7.896-51.842-46.356-94.275-97.631-106.014
		c-26.257-6.01-55.502-3.536-79.989,8.007c-1.285,0.606-2.54,1.308-3.809,1.968c-23.165,20.236-37.259,49.061-49.25,77.814
		c0.749-0.124,1.49-0.22,2.299-0.542c36.728-14.637,76.405-13.117,114.776-6.749c33.564,5.572,70.883,11.677,95.393,37.44
		C1546.922,735.529,1559.471,724.305,1558.264,716.383z"/>
	<path style="fill:#442100;" d="M700.147,716.383c7.896-51.842,46.356-94.275,97.631-106.014c26.257-6.01,55.502-3.536,79.989,8.007
		c1.285,0.606,2.541,1.308,3.81,1.968c23.165,20.236,37.258,49.061,49.249,77.814c-0.748-0.124-1.489-0.22-2.299-0.542
		c-36.728-14.637-76.405-13.117-114.776-6.749c-33.564,5.572-70.883,11.677-95.393,37.44
		C711.489,735.529,698.941,724.305,700.147,716.383z"/>
	<path style="fill:#FFB9AA;" d="M1585.997,1264.265c-4.966-11.193-17.057-14.732-28.818-14.782
		c-12.518-1.636-26.613,0.743-35.905,9.783c-4.411,4.292-6.809,10.207-5.271,16.328c1.652,6.573,6.831,11.323,12.702,14.296
		c12.296,6.226,27.685,7.636,40.723,3.011c6-2.129,12.167-5.65,15.626-11.177
		C1588.363,1276.439,1588.499,1269.906,1585.997,1264.265z"/>
	<path style="fill:#FFB9AA;" d="M1640.743,1257.944c-2.418-5.452-8.308-7.175-14.034-7.2c-6.096-0.797-12.962,0.362-17.486,4.765
		c-2.149,2.09-3.316,4.971-2.567,7.952c0.804,3.201,3.326,5.514,6.185,6.962c5.989,3.033,13.484,3.719,19.833,1.466
		c2.922-1.036,5.925-2.751,7.61-5.442C1641.895,1263.872,1641.961,1260.691,1640.743,1257.944z"/>
</g>
</svg>
